<svg width="36" height="38" viewBox="0 0 36 38" fill="none" xmlns="http://www.w3.org/2000/svg">
<g filter="url(#filter0_d_1_48)">
<path d="M19 3.99999V2.99999C19 2.73478 18.8946 2.48042 18.7071 2.29289C18.5195 2.10535 18.2652 1.99999 18 1.99999C17.7348 1.99999 17.4804 2.10535 17.2929 2.29289C17.1053 2.48042 17 2.73478 17 2.99999V3.99999C17 4.26521 17.1053 4.51956 17.2929 4.7071C17.4804 4.89464 17.7348 4.99999 18 4.99999C18.2652 4.99999 18.5195 4.89464 18.7071 4.7071C18.8946 4.51956 19 4.26521 19 3.99999ZM9.50997 6.09999C9.31867 5.93617 9.07259 5.85056 8.82092 5.86028C8.56924 5.87 8.3305 5.97433 8.15241 6.15243C7.97431 6.33052 7.86998 6.56926 7.86026 6.82094C7.85054 7.07261 7.93614 7.31869 8.09997 7.50999L8.80997 8.21999C9.00127 8.38382 9.24735 8.46942 9.49902 8.4597C9.7507 8.44998 9.98944 8.34565 10.1675 8.16756C10.3456 7.98946 10.45 7.75072 10.4597 7.49905C10.4694 7.24737 10.3838 7.00129 10.22 6.80999L9.50997 6.09999ZM5.99997 17C6.26519 17 6.51954 16.8946 6.70708 16.7071C6.89461 16.5196 6.99997 16.2652 6.99997 16C6.99997 15.7348 6.89461 15.4804 6.70708 15.2929C6.51954 15.1053 6.26519 15 5.99997 15H4.99997C4.73475 15 4.4804 15.1053 4.29286 15.2929C4.10533 15.4804 3.99997 15.7348 3.99997 16C3.99997 16.2652 4.10533 16.5196 4.29286 16.7071C4.4804 16.8946 4.73475 17 4.99997 17H5.99997ZM8.09997 25.9C8.28733 26.0862 8.54078 26.1908 8.80497 26.1908C9.06916 26.1908 9.32261 26.0862 9.50997 25.9L10.22 25.19C10.3838 24.9987 10.4694 24.7526 10.4597 24.5009C10.45 24.2493 10.3456 24.0105 10.1675 23.8324C9.98944 23.6543 9.7507 23.55 9.49902 23.5403C9.24735 23.5306 9.00127 23.6162 8.80997 23.78L8.09997 24.49C7.91372 24.6774 7.80918 24.9308 7.80918 25.195C7.80918 25.4592 7.91372 25.7126 8.09997 25.9ZM27.19 23.78C26.9987 23.6162 26.7526 23.5306 26.5009 23.5403C26.2492 23.55 26.0105 23.6543 25.8324 23.8324C25.6543 24.0105 25.55 24.2493 25.5403 24.5009C25.5305 24.7526 25.6161 24.9987 25.78 25.19L26.49 25.9C26.6813 26.0638 26.9273 26.1494 27.179 26.1397C27.4307 26.13 27.6694 26.0256 27.8475 25.8476C28.0256 25.6695 28.13 25.4307 28.1397 25.179C28.1494 24.9274 28.0638 24.6813 27.9 24.49L27.19 23.78ZM31 15H30C29.7348 15 29.4804 15.1053 29.2929 15.2929C29.1053 15.4804 29 15.7348 29 16C29 16.2652 29.1053 16.5196 29.2929 16.7071C29.4804 16.8946 29.7348 17 30 17H31C31.2652 17 31.5195 16.8946 31.7071 16.7071C31.8946 16.5196 32 16.2652 32 16C32 15.7348 31.8946 15.4804 31.7071 15.2929C31.5195 15.1053 31.2652 15 31 15ZM27.9 6.09999C27.7126 5.91374 27.4592 5.8092 27.195 5.8092C26.9308 5.8092 26.6773 5.91374 26.49 6.09999L25.78 6.80999C25.6753 6.89964 25.5903 7.00996 25.5302 7.13402C25.4702 7.25809 25.4365 7.39322 25.4312 7.53094C25.4259 7.66866 25.4491 7.80599 25.4993 7.93431C25.5496 8.06264 25.6259 8.17919 25.7233 8.27664C25.8208 8.3741 25.9373 8.45036 26.0656 8.50063C26.194 8.5509 26.3313 8.57411 26.469 8.56879C26.6067 8.56347 26.7419 8.52974 26.8659 8.46972C26.99 8.40969 27.1003 8.32467 27.19 8.21999L27.9 7.50999C28.0862 7.32263 28.1908 7.06918 28.1908 6.80499C28.1908 6.54081 28.0862 6.28735 27.9 6.09999ZM8.99997 16C9.00216 17.4778 9.36823 18.9324 10.0659 20.2352C10.7635 21.538 11.7712 22.649 13 23.47V29C13 29.2652 13.1053 29.5196 13.2929 29.7071C13.4804 29.8946 13.7348 30 14 30H22C22.2652 30 22.5195 29.8946 22.7071 29.7071C22.8946 29.5196 23 29.2652 23 29V23.47C24.2933 22.6059 25.3406 21.4213 26.0397 20.0318C26.7388 18.6423 27.0658 17.0954 26.989 15.5419C26.9121 13.9883 26.4339 12.4812 25.601 11.1676C24.7681 9.8539 23.609 8.77852 22.2367 8.04629C20.8644 7.31407 19.3258 6.95 17.7708 6.9896C16.2159 7.0292 14.6978 7.47111 13.3645 8.27224C12.0312 9.07337 10.9284 10.2064 10.1635 11.5607C9.39853 12.9151 8.99767 14.4446 8.99997 16ZM15 28V26H21V28H15ZM18 8.99999C19.5402 9.00082 21.0372 9.50963 22.2589 10.4476C23.4806 11.3855 24.3589 12.7002 24.7576 14.188C25.1563 15.6757 25.0532 17.2534 24.4642 18.6766C23.8753 20.0998 22.8334 21.289 21.5 22.06C21.3474 22.1481 21.2208 22.275 21.1329 22.4277C21.0451 22.5805 20.9993 22.7538 21 22.93V24H19V18H21C21.2652 18 21.5195 17.8946 21.7071 17.7071C21.8946 17.5196 22 17.2652 22 17C22 16.7348 21.8946 16.4804 21.7071 16.2929C21.5195 16.1053 21.2652 16 21 16H15C14.7348 16 14.4804 16.1053 14.2929 16.2929C14.1053 16.4804 14 16.7348 14 17C14 17.2652 14.1053 17.5196 14.2929 17.7071C14.4804 17.8946 14.7348 18 15 18H17V24H15V22.92C15.0007 22.7438 14.9548 22.5705 14.867 22.4177C14.7792 22.265 14.6526 22.1381 14.5 22.05C13.1715 21.2769 12.1344 20.0879 11.5488 18.6668C10.9632 17.2456 10.8617 15.6713 11.2599 14.1866C11.658 12.702 12.5338 11.3898 13.7519 10.4524C14.9701 9.51498 16.4629 9.00459 18 8.99999Z" fill="#B4708D"/>
</g>
<defs>
<filter id="filter0_d_1_48" x="-2" y="0" width="40" height="40" filterUnits="userSpaceOnUse" color-interpolation-filters="sRGB">
<feFlood flood-opacity="0" result="BackgroundImageFix"/>
<feColorMatrix in="SourceAlpha" type="matrix" values="0 0 0 0 0 0 0 0 0 0 0 0 0 0 0 0 0 0 127 0" result="hardAlpha"/>
<feOffset dy="4"/>
<feGaussianBlur stdDeviation="2"/>
<feComposite in2="hardAlpha" operator="out"/>
<feColorMatrix type="matrix" values="0 0 0 0 0 0 0 0 0 0 0 0 0 0 0 0 0 0 0.25 0"/>
<feBlend mode="normal" in2="BackgroundImageFix" result="effect1_dropShadow_1_48"/>
<feBlend mode="normal" in="SourceGraphic" in2="effect1_dropShadow_1_48" result="shape"/>
</filter>
</defs>
</svg>
